<svg xmlns="http://www.w3.org/2000/svg" viewBox="0 0 128 128" width="128" height="128">
  <defs>
    <linearGradient id="grad1" x1="0%" y1="0%" x2="100%" y2="100%">
      <stop offset="0%" style="stop-color:#667eea;stop-opacity:1" />
      <stop offset="100%" style="stop-color:#764ba2;stop-opacity:1" />
    </linearGradient>
    <filter id="shadow" x="-20%" y="-20%" width="140%" height="140%">
      <feDropShadow dx="2" dy="2" stdDeviation="3" flood-opacity="0.3"/>
    </filter>
  </defs>
  
  <!-- 背景圆形 -->
  <circle cx="64" cy="64" r="60" fill="url(#grad1)" filter="url(#shadow)"/>
  
  <!-- 笔记本/文档图标 -->
  <rect x="38" y="32" width="52" height="64" rx="6" fill="white" opacity="0.95"/>
  
  <!-- 文档线条 -->
  <rect x="46" y="44" width="36" height="4" rx="2" fill="#667eea"/>
  <rect x="46" y="54" width="28" height="4" rx="2" fill="#764ba2" opacity="0.6"/>
  <rect x="46" y="64" width="32" height="4" rx="2" fill="#667eea" opacity="0.4"/>
  <rect x="46" y="74" width="24" height="4" rx="2" fill="#764ba2" opacity="0.5"/>
  
  <!-- 灯泡/提示词符号 -->
  <circle cx="88" cy="88" r="18" fill="#ffd700"/>
  <path d="M88 76 L88 80 M88 96 L88 100 M76 88 L80 88 M96 88 L100 88" stroke="#ffa500" stroke-width="3" stroke-linecap="round"/>
  <circle cx="88" cy="88" r="6" fill="#ff8c00"/>
</svg>